<mxfile host="app.diagrams.net" modified="2020-11-11T12:43:01.916Z" agent="5.0 (X11)" etag="HGzptxKZaNoG2ecSCwLJ" version="13.8.8" type="github">
  <diagram id="hZDSW_HOKCULCPWgvv6r" name="Page-1">
    <mxGraphModel dx="1593" dy="921" grid="1" gridSize="10" guides="1" tooltips="1" connect="1" arrows="1" fold="1" page="1" pageScale="1" pageWidth="850" pageHeight="1400" math="1" shadow="0">
      <root>
        <mxCell id="0" />
        <mxCell id="1" parent="0" />
        <mxCell id="SrhOuSpwvDZdMjggOFZn-51" value="" style="shape=table;html=1;whiteSpace=wrap;startSize=0;container=1;collapsible=0;childLayout=tableLayout;rounded=0;shadow=0;sketch=0;fillColor=#e1d5e7;strokeColor=#9673a6;" parent="1" vertex="1">
          <mxGeometry x="30" y="491" width="220" height="220" as="geometry" />
        </mxCell>
        <mxCell id="SrhOuSpwvDZdMjggOFZn-52" style="shape=partialRectangle;html=1;whiteSpace=wrap;collapsible=0;dropTarget=0;pointerEvents=0;fillColor=none;top=0;left=0;bottom=0;right=0;points=[[0,0.5],[1,0.5]];portConstraint=eastwest;" parent="SrhOuSpwvDZdMjggOFZn-51" vertex="1">
          <mxGeometry width="220" height="44" as="geometry" />
        </mxCell>
        <mxCell id="SrhOuSpwvDZdMjggOFZn-53" style="shape=partialRectangle;html=1;whiteSpace=wrap;connectable=0;fillColor=#dae8fc;top=0;left=0;bottom=0;right=0;overflow=hidden;strokeColor=#6c8ebf;" parent="SrhOuSpwvDZdMjggOFZn-52" vertex="1">
          <mxGeometry width="55" height="44" as="geometry" />
        </mxCell>
        <mxCell id="SrhOuSpwvDZdMjggOFZn-54" style="shape=partialRectangle;html=1;whiteSpace=wrap;connectable=0;fillColor=#1ba1e2;top=0;left=0;bottom=0;right=0;overflow=hidden;strokeColor=#006EAF;fontColor=#ffffff;" parent="SrhOuSpwvDZdMjggOFZn-52" vertex="1">
          <mxGeometry x="55" width="55" height="44" as="geometry" />
        </mxCell>
        <mxCell id="SrhOuSpwvDZdMjggOFZn-55" style="shape=partialRectangle;html=1;whiteSpace=wrap;connectable=0;fillColor=#dae8fc;top=0;left=0;bottom=0;right=0;overflow=hidden;strokeColor=#6c8ebf;" parent="SrhOuSpwvDZdMjggOFZn-52" vertex="1">
          <mxGeometry x="110" width="55" height="44" as="geometry" />
        </mxCell>
        <mxCell id="SrhOuSpwvDZdMjggOFZn-56" style="shape=partialRectangle;html=1;whiteSpace=wrap;connectable=0;fillColor=#dae8fc;top=0;left=0;bottom=0;right=0;overflow=hidden;strokeColor=#6c8ebf;" parent="SrhOuSpwvDZdMjggOFZn-52" vertex="1">
          <mxGeometry x="165" width="55" height="44" as="geometry" />
        </mxCell>
        <mxCell id="SrhOuSpwvDZdMjggOFZn-57" value="" style="shape=partialRectangle;html=1;whiteSpace=wrap;collapsible=0;dropTarget=0;pointerEvents=0;fillColor=none;top=0;left=0;bottom=0;right=0;points=[[0,0.5],[1,0.5]];portConstraint=eastwest;" parent="SrhOuSpwvDZdMjggOFZn-51" vertex="1">
          <mxGeometry y="44" width="220" height="44" as="geometry" />
        </mxCell>
        <mxCell id="SrhOuSpwvDZdMjggOFZn-58" style="shape=partialRectangle;html=1;whiteSpace=wrap;connectable=0;top=0;left=0;bottom=0;right=0;overflow=hidden;" parent="SrhOuSpwvDZdMjggOFZn-57" vertex="1">
          <mxGeometry width="55" height="44" as="geometry" />
        </mxCell>
        <mxCell id="SrhOuSpwvDZdMjggOFZn-59" value="" style="shape=partialRectangle;html=1;whiteSpace=wrap;connectable=0;top=0;left=0;bottom=0;right=0;overflow=hidden;" parent="SrhOuSpwvDZdMjggOFZn-57" vertex="1">
          <mxGeometry x="55" width="55" height="44" as="geometry" />
        </mxCell>
        <mxCell id="SrhOuSpwvDZdMjggOFZn-60" value="" style="shape=partialRectangle;html=1;whiteSpace=wrap;connectable=0;top=0;left=0;bottom=0;right=0;overflow=hidden;" parent="SrhOuSpwvDZdMjggOFZn-57" vertex="1">
          <mxGeometry x="110" width="55" height="44" as="geometry" />
        </mxCell>
        <mxCell id="SrhOuSpwvDZdMjggOFZn-61" value="" style="shape=partialRectangle;html=1;whiteSpace=wrap;connectable=0;top=0;left=0;bottom=0;right=0;overflow=hidden;" parent="SrhOuSpwvDZdMjggOFZn-57" vertex="1">
          <mxGeometry x="165" width="55" height="44" as="geometry" />
        </mxCell>
        <mxCell id="SrhOuSpwvDZdMjggOFZn-62" value="" style="shape=partialRectangle;html=1;whiteSpace=wrap;collapsible=0;dropTarget=0;pointerEvents=0;fillColor=none;top=0;left=0;bottom=0;right=0;points=[[0,0.5],[1,0.5]];portConstraint=eastwest;" parent="SrhOuSpwvDZdMjggOFZn-51" vertex="1">
          <mxGeometry y="88" width="220" height="44" as="geometry" />
        </mxCell>
        <mxCell id="SrhOuSpwvDZdMjggOFZn-63" style="shape=partialRectangle;html=1;whiteSpace=wrap;connectable=0;top=0;left=0;bottom=0;right=0;overflow=hidden;" parent="SrhOuSpwvDZdMjggOFZn-62" vertex="1">
          <mxGeometry width="55" height="44" as="geometry" />
        </mxCell>
        <mxCell id="SrhOuSpwvDZdMjggOFZn-64" value="" style="shape=partialRectangle;html=1;whiteSpace=wrap;connectable=0;top=0;left=0;bottom=0;right=0;overflow=hidden;" parent="SrhOuSpwvDZdMjggOFZn-62" vertex="1">
          <mxGeometry x="55" width="55" height="44" as="geometry" />
        </mxCell>
        <mxCell id="SrhOuSpwvDZdMjggOFZn-65" value="" style="shape=partialRectangle;html=1;whiteSpace=wrap;connectable=0;top=0;left=0;bottom=0;right=0;overflow=hidden;" parent="SrhOuSpwvDZdMjggOFZn-62" vertex="1">
          <mxGeometry x="110" width="55" height="44" as="geometry" />
        </mxCell>
        <mxCell id="SrhOuSpwvDZdMjggOFZn-66" value="" style="shape=partialRectangle;html=1;whiteSpace=wrap;connectable=0;top=0;left=0;bottom=0;right=0;overflow=hidden;" parent="SrhOuSpwvDZdMjggOFZn-62" vertex="1">
          <mxGeometry x="165" width="55" height="44" as="geometry" />
        </mxCell>
        <mxCell id="SrhOuSpwvDZdMjggOFZn-67" value="" style="shape=partialRectangle;html=1;whiteSpace=wrap;collapsible=0;dropTarget=0;pointerEvents=0;fillColor=none;top=0;left=0;bottom=0;right=0;points=[[0,0.5],[1,0.5]];portConstraint=eastwest;" parent="SrhOuSpwvDZdMjggOFZn-51" vertex="1">
          <mxGeometry y="132" width="220" height="44" as="geometry" />
        </mxCell>
        <mxCell id="SrhOuSpwvDZdMjggOFZn-68" style="shape=partialRectangle;html=1;whiteSpace=wrap;connectable=0;fillColor=#e3c800;top=0;left=0;bottom=0;right=0;overflow=hidden;strokeColor=#B09500;fontColor=#ffffff;" parent="SrhOuSpwvDZdMjggOFZn-67" vertex="1">
          <mxGeometry width="55" height="44" as="geometry" />
        </mxCell>
        <mxCell id="SrhOuSpwvDZdMjggOFZn-69" value="" style="shape=partialRectangle;html=1;whiteSpace=wrap;connectable=0;fillColor=#fff2cc;top=0;left=0;bottom=0;right=0;overflow=hidden;strokeColor=#d6b656;" parent="SrhOuSpwvDZdMjggOFZn-67" vertex="1">
          <mxGeometry x="55" width="55" height="44" as="geometry" />
        </mxCell>
        <mxCell id="SrhOuSpwvDZdMjggOFZn-70" value="" style="shape=partialRectangle;html=1;whiteSpace=wrap;connectable=0;fillColor=#fff2cc;top=0;left=0;bottom=0;right=0;overflow=hidden;strokeColor=#d6b656;" parent="SrhOuSpwvDZdMjggOFZn-67" vertex="1">
          <mxGeometry x="110" width="55" height="44" as="geometry" />
        </mxCell>
        <mxCell id="SrhOuSpwvDZdMjggOFZn-71" value="" style="shape=partialRectangle;html=1;whiteSpace=wrap;connectable=0;fillColor=#fff2cc;top=0;left=0;bottom=0;right=0;overflow=hidden;strokeColor=#d6b656;" parent="SrhOuSpwvDZdMjggOFZn-67" vertex="1">
          <mxGeometry x="165" width="55" height="44" as="geometry" />
        </mxCell>
        <mxCell id="SrhOuSpwvDZdMjggOFZn-72" style="shape=partialRectangle;html=1;whiteSpace=wrap;collapsible=0;dropTarget=0;pointerEvents=0;fillColor=none;top=0;left=0;bottom=0;right=0;points=[[0,0.5],[1,0.5]];portConstraint=eastwest;" parent="SrhOuSpwvDZdMjggOFZn-51" vertex="1">
          <mxGeometry y="176" width="220" height="44" as="geometry" />
        </mxCell>
        <mxCell id="SrhOuSpwvDZdMjggOFZn-73" style="shape=partialRectangle;html=1;whiteSpace=wrap;connectable=0;top=0;left=0;bottom=0;right=0;overflow=hidden;" parent="SrhOuSpwvDZdMjggOFZn-72" vertex="1">
          <mxGeometry width="55" height="44" as="geometry" />
        </mxCell>
        <mxCell id="SrhOuSpwvDZdMjggOFZn-74" style="shape=partialRectangle;html=1;whiteSpace=wrap;connectable=0;top=0;left=0;bottom=0;right=0;overflow=hidden;" parent="SrhOuSpwvDZdMjggOFZn-72" vertex="1">
          <mxGeometry x="55" width="55" height="44" as="geometry" />
        </mxCell>
        <mxCell id="SrhOuSpwvDZdMjggOFZn-75" style="shape=partialRectangle;html=1;whiteSpace=wrap;connectable=0;top=0;left=0;bottom=0;right=0;overflow=hidden;" parent="SrhOuSpwvDZdMjggOFZn-72" vertex="1">
          <mxGeometry x="110" width="55" height="44" as="geometry" />
        </mxCell>
        <mxCell id="SrhOuSpwvDZdMjggOFZn-76" style="shape=partialRectangle;html=1;whiteSpace=wrap;connectable=0;top=0;left=0;bottom=0;right=0;overflow=hidden;" parent="SrhOuSpwvDZdMjggOFZn-72" vertex="1">
          <mxGeometry x="165" width="55" height="44" as="geometry" />
        </mxCell>
        <mxCell id="rDQ6EAycthC4kisG_Dc3-1" value="" style="shape=table;html=1;whiteSpace=wrap;startSize=0;container=1;collapsible=0;childLayout=tableLayout;rounded=0;shadow=0;sketch=0;fillColor=#e1d5e7;strokeColor=#9673a6;" vertex="1" parent="1">
          <mxGeometry x="30" y="120" width="220" height="220" as="geometry" />
        </mxCell>
        <mxCell id="rDQ6EAycthC4kisG_Dc3-2" style="shape=partialRectangle;html=1;whiteSpace=wrap;collapsible=0;dropTarget=0;pointerEvents=0;fillColor=none;top=0;left=0;bottom=0;right=0;points=[[0,0.5],[1,0.5]];portConstraint=eastwest;" vertex="1" parent="rDQ6EAycthC4kisG_Dc3-1">
          <mxGeometry width="220" height="44" as="geometry" />
        </mxCell>
        <mxCell id="rDQ6EAycthC4kisG_Dc3-3" style="shape=partialRectangle;html=1;whiteSpace=wrap;connectable=0;fillColor=#dae8fc;top=0;left=0;bottom=0;right=0;overflow=hidden;strokeColor=#6c8ebf;" vertex="1" parent="rDQ6EAycthC4kisG_Dc3-2">
          <mxGeometry width="55" height="44" as="geometry" />
        </mxCell>
        <mxCell id="rDQ6EAycthC4kisG_Dc3-4" style="shape=partialRectangle;html=1;whiteSpace=wrap;connectable=0;fillColor=#dae8fc;top=0;left=0;bottom=0;right=0;overflow=hidden;strokeColor=#6c8ebf;" vertex="1" parent="rDQ6EAycthC4kisG_Dc3-2">
          <mxGeometry x="55" width="55" height="44" as="geometry" />
        </mxCell>
        <mxCell id="rDQ6EAycthC4kisG_Dc3-5" style="shape=partialRectangle;html=1;whiteSpace=wrap;connectable=0;fillColor=#dae8fc;top=0;left=0;bottom=0;right=0;overflow=hidden;strokeColor=#6c8ebf;" vertex="1" parent="rDQ6EAycthC4kisG_Dc3-2">
          <mxGeometry x="110" width="55" height="44" as="geometry" />
        </mxCell>
        <mxCell id="rDQ6EAycthC4kisG_Dc3-6" style="shape=partialRectangle;html=1;whiteSpace=wrap;connectable=0;fillColor=#1ba1e2;top=0;left=0;bottom=0;right=0;overflow=hidden;strokeColor=#006EAF;fontColor=#ffffff;" vertex="1" parent="rDQ6EAycthC4kisG_Dc3-2">
          <mxGeometry x="165" width="55" height="44" as="geometry" />
        </mxCell>
        <mxCell id="rDQ6EAycthC4kisG_Dc3-7" value="" style="shape=partialRectangle;html=1;whiteSpace=wrap;collapsible=0;dropTarget=0;pointerEvents=0;fillColor=none;top=0;left=0;bottom=0;right=0;points=[[0,0.5],[1,0.5]];portConstraint=eastwest;" vertex="1" parent="rDQ6EAycthC4kisG_Dc3-1">
          <mxGeometry y="44" width="220" height="44" as="geometry" />
        </mxCell>
        <mxCell id="rDQ6EAycthC4kisG_Dc3-8" style="shape=partialRectangle;html=1;whiteSpace=wrap;connectable=0;fillColor=#d5e8d4;top=0;left=0;bottom=0;right=0;overflow=hidden;strokeColor=#82b366;" vertex="1" parent="rDQ6EAycthC4kisG_Dc3-7">
          <mxGeometry width="55" height="44" as="geometry" />
        </mxCell>
        <mxCell id="rDQ6EAycthC4kisG_Dc3-9" value="" style="shape=partialRectangle;html=1;whiteSpace=wrap;connectable=0;fillColor=#d5e8d4;top=0;left=0;bottom=0;right=0;overflow=hidden;strokeColor=#82b366;" vertex="1" parent="rDQ6EAycthC4kisG_Dc3-7">
          <mxGeometry x="55" width="55" height="44" as="geometry" />
        </mxCell>
        <mxCell id="rDQ6EAycthC4kisG_Dc3-10" value="" style="shape=partialRectangle;html=1;whiteSpace=wrap;connectable=0;fillColor=#d5e8d4;top=0;left=0;bottom=0;right=0;overflow=hidden;strokeColor=#82b366;" vertex="1" parent="rDQ6EAycthC4kisG_Dc3-7">
          <mxGeometry x="110" width="55" height="44" as="geometry" />
        </mxCell>
        <mxCell id="rDQ6EAycthC4kisG_Dc3-11" value="" style="shape=partialRectangle;html=1;whiteSpace=wrap;connectable=0;fillColor=#008a00;top=0;left=0;bottom=0;right=0;overflow=hidden;strokeColor=#005700;fontColor=#ffffff;" vertex="1" parent="rDQ6EAycthC4kisG_Dc3-7">
          <mxGeometry x="165" width="55" height="44" as="geometry" />
        </mxCell>
        <mxCell id="rDQ6EAycthC4kisG_Dc3-12" value="" style="shape=partialRectangle;html=1;whiteSpace=wrap;collapsible=0;dropTarget=0;pointerEvents=0;fillColor=none;top=0;left=0;bottom=0;right=0;points=[[0,0.5],[1,0.5]];portConstraint=eastwest;" vertex="1" parent="rDQ6EAycthC4kisG_Dc3-1">
          <mxGeometry y="88" width="220" height="44" as="geometry" />
        </mxCell>
        <mxCell id="rDQ6EAycthC4kisG_Dc3-13" style="shape=partialRectangle;html=1;whiteSpace=wrap;connectable=0;fillColor=#ffe6cc;top=0;left=0;bottom=0;right=0;overflow=hidden;strokeColor=#d79b00;" vertex="1" parent="rDQ6EAycthC4kisG_Dc3-12">
          <mxGeometry width="55" height="44" as="geometry" />
        </mxCell>
        <mxCell id="rDQ6EAycthC4kisG_Dc3-14" value="" style="shape=partialRectangle;html=1;whiteSpace=wrap;connectable=0;fillColor=#ffe6cc;top=0;left=0;bottom=0;right=0;overflow=hidden;strokeColor=#d79b00;" vertex="1" parent="rDQ6EAycthC4kisG_Dc3-12">
          <mxGeometry x="55" width="55" height="44" as="geometry" />
        </mxCell>
        <mxCell id="rDQ6EAycthC4kisG_Dc3-15" value="" style="shape=partialRectangle;html=1;whiteSpace=wrap;connectable=0;fillColor=#ffe6cc;top=0;left=0;bottom=0;right=0;overflow=hidden;strokeColor=#d79b00;" vertex="1" parent="rDQ6EAycthC4kisG_Dc3-12">
          <mxGeometry x="110" width="55" height="44" as="geometry" />
        </mxCell>
        <mxCell id="rDQ6EAycthC4kisG_Dc3-16" value="" style="shape=partialRectangle;html=1;whiteSpace=wrap;connectable=0;fillColor=#f0a30a;top=0;left=0;bottom=0;right=0;overflow=hidden;strokeColor=#BD7000;fontColor=#ffffff;" vertex="1" parent="rDQ6EAycthC4kisG_Dc3-12">
          <mxGeometry x="165" width="55" height="44" as="geometry" />
        </mxCell>
        <mxCell id="rDQ6EAycthC4kisG_Dc3-17" value="" style="shape=partialRectangle;html=1;whiteSpace=wrap;collapsible=0;dropTarget=0;pointerEvents=0;fillColor=none;top=0;left=0;bottom=0;right=0;points=[[0,0.5],[1,0.5]];portConstraint=eastwest;" vertex="1" parent="rDQ6EAycthC4kisG_Dc3-1">
          <mxGeometry y="132" width="220" height="44" as="geometry" />
        </mxCell>
        <mxCell id="rDQ6EAycthC4kisG_Dc3-18" style="shape=partialRectangle;html=1;whiteSpace=wrap;connectable=0;fillColor=#fff2cc;top=0;left=0;bottom=0;right=0;overflow=hidden;strokeColor=#d6b656;" vertex="1" parent="rDQ6EAycthC4kisG_Dc3-17">
          <mxGeometry width="55" height="44" as="geometry" />
        </mxCell>
        <mxCell id="rDQ6EAycthC4kisG_Dc3-19" value="" style="shape=partialRectangle;html=1;whiteSpace=wrap;connectable=0;fillColor=#fff2cc;top=0;left=0;bottom=0;right=0;overflow=hidden;strokeColor=#d6b656;" vertex="1" parent="rDQ6EAycthC4kisG_Dc3-17">
          <mxGeometry x="55" width="55" height="44" as="geometry" />
        </mxCell>
        <mxCell id="rDQ6EAycthC4kisG_Dc3-20" value="" style="shape=partialRectangle;html=1;whiteSpace=wrap;connectable=0;fillColor=#fff2cc;top=0;left=0;bottom=0;right=0;overflow=hidden;strokeColor=#d6b656;" vertex="1" parent="rDQ6EAycthC4kisG_Dc3-17">
          <mxGeometry x="110" width="55" height="44" as="geometry" />
        </mxCell>
        <mxCell id="rDQ6EAycthC4kisG_Dc3-21" value="" style="shape=partialRectangle;html=1;whiteSpace=wrap;connectable=0;fillColor=#e3c800;top=0;left=0;bottom=0;right=0;overflow=hidden;strokeColor=#B09500;fontColor=#ffffff;" vertex="1" parent="rDQ6EAycthC4kisG_Dc3-17">
          <mxGeometry x="165" width="55" height="44" as="geometry" />
        </mxCell>
        <mxCell id="rDQ6EAycthC4kisG_Dc3-22" style="shape=partialRectangle;html=1;whiteSpace=wrap;collapsible=0;dropTarget=0;pointerEvents=0;fillColor=none;top=0;left=0;bottom=0;right=0;points=[[0,0.5],[1,0.5]];portConstraint=eastwest;" vertex="1" parent="rDQ6EAycthC4kisG_Dc3-1">
          <mxGeometry y="176" width="220" height="44" as="geometry" />
        </mxCell>
        <mxCell id="rDQ6EAycthC4kisG_Dc3-23" style="shape=partialRectangle;html=1;whiteSpace=wrap;connectable=0;fillColor=#e1d5e7;top=0;left=0;bottom=0;right=0;overflow=hidden;strokeColor=#9673a6;" vertex="1" parent="rDQ6EAycthC4kisG_Dc3-22">
          <mxGeometry width="55" height="44" as="geometry" />
        </mxCell>
        <mxCell id="rDQ6EAycthC4kisG_Dc3-24" style="shape=partialRectangle;html=1;whiteSpace=wrap;connectable=0;fillColor=#e1d5e7;top=0;left=0;bottom=0;right=0;overflow=hidden;strokeColor=#9673a6;" vertex="1" parent="rDQ6EAycthC4kisG_Dc3-22">
          <mxGeometry x="55" width="55" height="44" as="geometry" />
        </mxCell>
        <mxCell id="rDQ6EAycthC4kisG_Dc3-25" style="shape=partialRectangle;html=1;whiteSpace=wrap;connectable=0;fillColor=#e1d5e7;top=0;left=0;bottom=0;right=0;overflow=hidden;strokeColor=#9673a6;" vertex="1" parent="rDQ6EAycthC4kisG_Dc3-22">
          <mxGeometry x="110" width="55" height="44" as="geometry" />
        </mxCell>
        <mxCell id="rDQ6EAycthC4kisG_Dc3-26" style="shape=partialRectangle;html=1;whiteSpace=wrap;connectable=0;fillColor=#e1d5e7;top=0;left=0;bottom=0;right=0;overflow=hidden;strokeColor=#9673a6;" vertex="1" parent="rDQ6EAycthC4kisG_Dc3-22">
          <mxGeometry x="165" width="55" height="44" as="geometry" />
        </mxCell>
        <mxCell id="rDQ6EAycthC4kisG_Dc3-27" value="" style="shape=table;html=1;whiteSpace=wrap;startSize=0;container=1;collapsible=0;childLayout=tableLayout;rounded=0;shadow=0;sketch=0;fillColor=#e1d5e7;strokeColor=#9673a6;" vertex="1" parent="1">
          <mxGeometry x="433" y="160" width="220" height="220" as="geometry" />
        </mxCell>
        <mxCell id="rDQ6EAycthC4kisG_Dc3-33" value="" style="shape=partialRectangle;html=1;whiteSpace=wrap;collapsible=0;dropTarget=0;pointerEvents=0;fillColor=none;top=0;left=0;bottom=0;right=0;points=[[0,0.5],[1,0.5]];portConstraint=eastwest;" vertex="1" parent="rDQ6EAycthC4kisG_Dc3-27">
          <mxGeometry width="220" height="44" as="geometry" />
        </mxCell>
        <mxCell id="rDQ6EAycthC4kisG_Dc3-34" style="shape=partialRectangle;html=1;whiteSpace=wrap;connectable=0;fillColor=#d5e8d4;top=0;left=0;bottom=0;right=0;overflow=hidden;strokeColor=#82b366;" vertex="1" parent="rDQ6EAycthC4kisG_Dc3-33">
          <mxGeometry width="55" height="44" as="geometry" />
        </mxCell>
        <mxCell id="rDQ6EAycthC4kisG_Dc3-35" value="" style="shape=partialRectangle;html=1;whiteSpace=wrap;connectable=0;fillColor=#d5e8d4;top=0;left=0;bottom=0;right=0;overflow=hidden;strokeColor=#82b366;" vertex="1" parent="rDQ6EAycthC4kisG_Dc3-33">
          <mxGeometry x="55" width="55" height="44" as="geometry" />
        </mxCell>
        <mxCell id="rDQ6EAycthC4kisG_Dc3-36" value="" style="shape=partialRectangle;html=1;whiteSpace=wrap;connectable=0;fillColor=#d5e8d4;top=0;left=0;bottom=0;right=0;overflow=hidden;strokeColor=#82b366;" vertex="1" parent="rDQ6EAycthC4kisG_Dc3-33">
          <mxGeometry x="110" width="55" height="44" as="geometry" />
        </mxCell>
        <mxCell id="rDQ6EAycthC4kisG_Dc3-37" value="" style="shape=partialRectangle;html=1;whiteSpace=wrap;connectable=0;fillColor=#008a00;top=0;left=0;bottom=0;right=0;overflow=hidden;strokeColor=#005700;fontColor=#ffffff;" vertex="1" parent="rDQ6EAycthC4kisG_Dc3-33">
          <mxGeometry x="165" width="55" height="44" as="geometry" />
        </mxCell>
        <mxCell id="rDQ6EAycthC4kisG_Dc3-38" value="" style="shape=partialRectangle;html=1;whiteSpace=wrap;collapsible=0;dropTarget=0;pointerEvents=0;fillColor=none;top=0;left=0;bottom=0;right=0;points=[[0,0.5],[1,0.5]];portConstraint=eastwest;" vertex="1" parent="rDQ6EAycthC4kisG_Dc3-27">
          <mxGeometry y="44" width="220" height="44" as="geometry" />
        </mxCell>
        <mxCell id="rDQ6EAycthC4kisG_Dc3-39" style="shape=partialRectangle;html=1;whiteSpace=wrap;connectable=0;fillColor=#ffe6cc;top=0;left=0;bottom=0;right=0;overflow=hidden;strokeColor=#d79b00;" vertex="1" parent="rDQ6EAycthC4kisG_Dc3-38">
          <mxGeometry width="55" height="44" as="geometry" />
        </mxCell>
        <mxCell id="rDQ6EAycthC4kisG_Dc3-40" value="" style="shape=partialRectangle;html=1;whiteSpace=wrap;connectable=0;fillColor=#ffe6cc;top=0;left=0;bottom=0;right=0;overflow=hidden;strokeColor=#d79b00;" vertex="1" parent="rDQ6EAycthC4kisG_Dc3-38">
          <mxGeometry x="55" width="55" height="44" as="geometry" />
        </mxCell>
        <mxCell id="rDQ6EAycthC4kisG_Dc3-41" value="" style="shape=partialRectangle;html=1;whiteSpace=wrap;connectable=0;fillColor=#ffe6cc;top=0;left=0;bottom=0;right=0;overflow=hidden;strokeColor=#d79b00;" vertex="1" parent="rDQ6EAycthC4kisG_Dc3-38">
          <mxGeometry x="110" width="55" height="44" as="geometry" />
        </mxCell>
        <mxCell id="rDQ6EAycthC4kisG_Dc3-42" value="" style="shape=partialRectangle;html=1;whiteSpace=wrap;connectable=0;fillColor=#f0a30a;top=0;left=0;bottom=0;right=0;overflow=hidden;strokeColor=#BD7000;fontColor=#ffffff;" vertex="1" parent="rDQ6EAycthC4kisG_Dc3-38">
          <mxGeometry x="165" width="55" height="44" as="geometry" />
        </mxCell>
        <mxCell id="rDQ6EAycthC4kisG_Dc3-43" value="" style="shape=partialRectangle;html=1;whiteSpace=wrap;collapsible=0;dropTarget=0;pointerEvents=0;fillColor=none;top=0;left=0;bottom=0;right=0;points=[[0,0.5],[1,0.5]];portConstraint=eastwest;" vertex="1" parent="rDQ6EAycthC4kisG_Dc3-27">
          <mxGeometry y="88" width="220" height="44" as="geometry" />
        </mxCell>
        <mxCell id="rDQ6EAycthC4kisG_Dc3-44" style="shape=partialRectangle;html=1;whiteSpace=wrap;connectable=0;fillColor=#fff2cc;top=0;left=0;bottom=0;right=0;overflow=hidden;strokeColor=#d6b656;" vertex="1" parent="rDQ6EAycthC4kisG_Dc3-43">
          <mxGeometry width="55" height="44" as="geometry" />
        </mxCell>
        <mxCell id="rDQ6EAycthC4kisG_Dc3-45" value="" style="shape=partialRectangle;html=1;whiteSpace=wrap;connectable=0;fillColor=#fff2cc;top=0;left=0;bottom=0;right=0;overflow=hidden;strokeColor=#d6b656;" vertex="1" parent="rDQ6EAycthC4kisG_Dc3-43">
          <mxGeometry x="55" width="55" height="44" as="geometry" />
        </mxCell>
        <mxCell id="rDQ6EAycthC4kisG_Dc3-46" value="" style="shape=partialRectangle;html=1;whiteSpace=wrap;connectable=0;fillColor=#fff2cc;top=0;left=0;bottom=0;right=0;overflow=hidden;strokeColor=#d6b656;" vertex="1" parent="rDQ6EAycthC4kisG_Dc3-43">
          <mxGeometry x="110" width="55" height="44" as="geometry" />
        </mxCell>
        <mxCell id="rDQ6EAycthC4kisG_Dc3-47" value="" style="shape=partialRectangle;html=1;whiteSpace=wrap;connectable=0;fillColor=#e3c800;top=0;left=0;bottom=0;right=0;overflow=hidden;strokeColor=#B09500;fontColor=#ffffff;" vertex="1" parent="rDQ6EAycthC4kisG_Dc3-43">
          <mxGeometry x="165" width="55" height="44" as="geometry" />
        </mxCell>
        <mxCell id="rDQ6EAycthC4kisG_Dc3-48" style="shape=partialRectangle;html=1;whiteSpace=wrap;collapsible=0;dropTarget=0;pointerEvents=0;fillColor=none;top=0;left=0;bottom=0;right=0;points=[[0,0.5],[1,0.5]];portConstraint=eastwest;" vertex="1" parent="rDQ6EAycthC4kisG_Dc3-27">
          <mxGeometry y="132" width="220" height="44" as="geometry" />
        </mxCell>
        <mxCell id="rDQ6EAycthC4kisG_Dc3-49" style="shape=partialRectangle;html=1;whiteSpace=wrap;connectable=0;fillColor=#e1d5e7;top=0;left=0;bottom=0;right=0;overflow=hidden;strokeColor=#9673a6;" vertex="1" parent="rDQ6EAycthC4kisG_Dc3-48">
          <mxGeometry width="55" height="44" as="geometry" />
        </mxCell>
        <mxCell id="rDQ6EAycthC4kisG_Dc3-50" style="shape=partialRectangle;html=1;whiteSpace=wrap;connectable=0;fillColor=#e1d5e7;top=0;left=0;bottom=0;right=0;overflow=hidden;strokeColor=#9673a6;" vertex="1" parent="rDQ6EAycthC4kisG_Dc3-48">
          <mxGeometry x="55" width="55" height="44" as="geometry" />
        </mxCell>
        <mxCell id="rDQ6EAycthC4kisG_Dc3-51" style="shape=partialRectangle;html=1;whiteSpace=wrap;connectable=0;fillColor=#e1d5e7;top=0;left=0;bottom=0;right=0;overflow=hidden;strokeColor=#9673a6;" vertex="1" parent="rDQ6EAycthC4kisG_Dc3-48">
          <mxGeometry x="110" width="55" height="44" as="geometry" />
        </mxCell>
        <mxCell id="rDQ6EAycthC4kisG_Dc3-52" style="shape=partialRectangle;html=1;whiteSpace=wrap;connectable=0;fillColor=#e1d5e7;top=0;left=0;bottom=0;right=0;overflow=hidden;strokeColor=#9673a6;" vertex="1" parent="rDQ6EAycthC4kisG_Dc3-48">
          <mxGeometry x="165" width="55" height="44" as="geometry" />
        </mxCell>
        <mxCell id="rDQ6EAycthC4kisG_Dc3-53" style="shape=partialRectangle;html=1;whiteSpace=wrap;collapsible=0;dropTarget=0;pointerEvents=0;fillColor=none;top=0;left=0;bottom=0;right=0;points=[[0,0.5],[1,0.5]];portConstraint=eastwest;" vertex="1" parent="rDQ6EAycthC4kisG_Dc3-27">
          <mxGeometry y="176" width="220" height="44" as="geometry" />
        </mxCell>
        <mxCell id="rDQ6EAycthC4kisG_Dc3-54" style="shape=partialRectangle;html=1;whiteSpace=wrap;connectable=0;fillColor=#dae8fc;top=0;left=0;bottom=0;right=0;overflow=hidden;strokeColor=#6c8ebf;" vertex="1" parent="rDQ6EAycthC4kisG_Dc3-53">
          <mxGeometry width="55" height="44" as="geometry" />
        </mxCell>
        <mxCell id="rDQ6EAycthC4kisG_Dc3-55" style="shape=partialRectangle;html=1;whiteSpace=wrap;connectable=0;fillColor=#dae8fc;top=0;left=0;bottom=0;right=0;overflow=hidden;strokeColor=#6c8ebf;" vertex="1" parent="rDQ6EAycthC4kisG_Dc3-53">
          <mxGeometry x="55" width="55" height="44" as="geometry" />
        </mxCell>
        <mxCell id="rDQ6EAycthC4kisG_Dc3-56" style="shape=partialRectangle;html=1;whiteSpace=wrap;connectable=0;fillColor=#dae8fc;top=0;left=0;bottom=0;right=0;overflow=hidden;strokeColor=#6c8ebf;" vertex="1" parent="rDQ6EAycthC4kisG_Dc3-53">
          <mxGeometry x="110" width="55" height="44" as="geometry" />
        </mxCell>
        <mxCell id="rDQ6EAycthC4kisG_Dc3-57" style="shape=partialRectangle;html=1;whiteSpace=wrap;connectable=0;fillColor=#1ba1e2;top=0;left=0;bottom=0;right=0;overflow=hidden;strokeColor=#006EAF;fontColor=#ffffff;" vertex="1" parent="rDQ6EAycthC4kisG_Dc3-53">
          <mxGeometry x="165" width="55" height="44" as="geometry" />
        </mxCell>
        <mxCell id="rDQ6EAycthC4kisG_Dc3-84" value="" style="shape=table;html=1;whiteSpace=wrap;startSize=0;container=1;collapsible=0;childLayout=tableLayout;rounded=0;shadow=0;sketch=0;fillColor=#e1d5e7;strokeColor=#9673a6;" vertex="1" parent="1">
          <mxGeometry x="460" y="580" width="220" height="220" as="geometry" />
        </mxCell>
        <mxCell id="rDQ6EAycthC4kisG_Dc3-85" value="" style="shape=partialRectangle;html=1;whiteSpace=wrap;collapsible=0;dropTarget=0;pointerEvents=0;fillColor=none;top=0;left=0;bottom=0;right=0;points=[[0,0.5],[1,0.5]];portConstraint=eastwest;" vertex="1" parent="rDQ6EAycthC4kisG_Dc3-84">
          <mxGeometry width="220" height="44" as="geometry" />
        </mxCell>
        <mxCell id="rDQ6EAycthC4kisG_Dc3-86" style="shape=partialRectangle;html=1;whiteSpace=wrap;connectable=0;fillColor=#cdeb8b;top=0;left=0;bottom=0;right=0;overflow=hidden;strokeColor=#36393d;" vertex="1" parent="rDQ6EAycthC4kisG_Dc3-85">
          <mxGeometry width="55" height="44" as="geometry" />
        </mxCell>
        <mxCell id="rDQ6EAycthC4kisG_Dc3-87" value="" style="shape=partialRectangle;html=1;whiteSpace=wrap;connectable=0;top=0;left=0;bottom=0;right=0;overflow=hidden;strokeColor=#82b366;fillColor=#A6B5A5;" vertex="1" parent="rDQ6EAycthC4kisG_Dc3-85">
          <mxGeometry x="55" width="55" height="44" as="geometry" />
        </mxCell>
        <mxCell id="rDQ6EAycthC4kisG_Dc3-88" value="" style="shape=partialRectangle;html=1;whiteSpace=wrap;connectable=0;fillColor=#cdeb8b;top=0;left=0;bottom=0;right=0;overflow=hidden;strokeColor=#36393d;" vertex="1" parent="rDQ6EAycthC4kisG_Dc3-85">
          <mxGeometry x="110" width="55" height="44" as="geometry" />
        </mxCell>
        <mxCell id="rDQ6EAycthC4kisG_Dc3-89" value="" style="shape=partialRectangle;html=1;whiteSpace=wrap;connectable=0;fillColor=#a20025;top=0;left=0;bottom=0;right=0;overflow=hidden;strokeColor=#6F0000;fontColor=#ffffff;" vertex="1" parent="rDQ6EAycthC4kisG_Dc3-85">
          <mxGeometry x="165" width="55" height="44" as="geometry" />
        </mxCell>
        <mxCell id="rDQ6EAycthC4kisG_Dc3-90" value="" style="shape=partialRectangle;html=1;whiteSpace=wrap;collapsible=0;dropTarget=0;pointerEvents=0;fillColor=none;top=0;left=0;bottom=0;right=0;points=[[0,0.5],[1,0.5]];portConstraint=eastwest;" vertex="1" parent="rDQ6EAycthC4kisG_Dc3-84">
          <mxGeometry y="44" width="220" height="44" as="geometry" />
        </mxCell>
        <mxCell id="rDQ6EAycthC4kisG_Dc3-91" style="shape=partialRectangle;html=1;whiteSpace=wrap;connectable=0;fillColor=#ffe6cc;top=0;left=0;bottom=0;right=0;overflow=hidden;strokeColor=#d79b00;" vertex="1" parent="rDQ6EAycthC4kisG_Dc3-90">
          <mxGeometry width="55" height="44" as="geometry" />
        </mxCell>
        <mxCell id="rDQ6EAycthC4kisG_Dc3-92" value="" style="shape=partialRectangle;html=1;whiteSpace=wrap;connectable=0;fillColor=#ffe6cc;top=0;left=0;bottom=0;right=0;overflow=hidden;strokeColor=#d79b00;" vertex="1" parent="rDQ6EAycthC4kisG_Dc3-90">
          <mxGeometry x="55" width="55" height="44" as="geometry" />
        </mxCell>
        <mxCell id="rDQ6EAycthC4kisG_Dc3-93" value="" style="shape=partialRectangle;html=1;whiteSpace=wrap;connectable=0;fillColor=#ffe6cc;top=0;left=0;bottom=0;right=0;overflow=hidden;strokeColor=#d79b00;" vertex="1" parent="rDQ6EAycthC4kisG_Dc3-90">
          <mxGeometry x="110" width="55" height="44" as="geometry" />
        </mxCell>
        <mxCell id="rDQ6EAycthC4kisG_Dc3-94" value="" style="shape=partialRectangle;html=1;whiteSpace=wrap;connectable=0;fillColor=#f0a30a;top=0;left=0;bottom=0;right=0;overflow=hidden;strokeColor=#BD7000;fontColor=#ffffff;" vertex="1" parent="rDQ6EAycthC4kisG_Dc3-90">
          <mxGeometry x="165" width="55" height="44" as="geometry" />
        </mxCell>
        <mxCell id="rDQ6EAycthC4kisG_Dc3-95" value="" style="shape=partialRectangle;html=1;whiteSpace=wrap;collapsible=0;dropTarget=0;pointerEvents=0;fillColor=none;top=0;left=0;bottom=0;right=0;points=[[0,0.5],[1,0.5]];portConstraint=eastwest;" vertex="1" parent="rDQ6EAycthC4kisG_Dc3-84">
          <mxGeometry y="88" width="220" height="44" as="geometry" />
        </mxCell>
        <mxCell id="rDQ6EAycthC4kisG_Dc3-96" style="shape=partialRectangle;html=1;whiteSpace=wrap;connectable=0;fillColor=#fff2cc;top=0;left=0;bottom=0;right=0;overflow=hidden;strokeColor=#d6b656;" vertex="1" parent="rDQ6EAycthC4kisG_Dc3-95">
          <mxGeometry width="55" height="44" as="geometry" />
        </mxCell>
        <mxCell id="rDQ6EAycthC4kisG_Dc3-97" value="" style="shape=partialRectangle;html=1;whiteSpace=wrap;connectable=0;fillColor=#fff2cc;top=0;left=0;bottom=0;right=0;overflow=hidden;strokeColor=#d6b656;" vertex="1" parent="rDQ6EAycthC4kisG_Dc3-95">
          <mxGeometry x="55" width="55" height="44" as="geometry" />
        </mxCell>
        <mxCell id="rDQ6EAycthC4kisG_Dc3-98" value="" style="shape=partialRectangle;html=1;whiteSpace=wrap;connectable=0;fillColor=#fff2cc;top=0;left=0;bottom=0;right=0;overflow=hidden;strokeColor=#d6b656;" vertex="1" parent="rDQ6EAycthC4kisG_Dc3-95">
          <mxGeometry x="110" width="55" height="44" as="geometry" />
        </mxCell>
        <mxCell id="rDQ6EAycthC4kisG_Dc3-99" value="" style="shape=partialRectangle;html=1;whiteSpace=wrap;connectable=0;fillColor=#e3c800;top=0;left=0;bottom=0;right=0;overflow=hidden;strokeColor=#B09500;fontColor=#ffffff;" vertex="1" parent="rDQ6EAycthC4kisG_Dc3-95">
          <mxGeometry x="165" width="55" height="44" as="geometry" />
        </mxCell>
        <mxCell id="rDQ6EAycthC4kisG_Dc3-100" style="shape=partialRectangle;html=1;whiteSpace=wrap;collapsible=0;dropTarget=0;pointerEvents=0;fillColor=none;top=0;left=0;bottom=0;right=0;points=[[0,0.5],[1,0.5]];portConstraint=eastwest;" vertex="1" parent="rDQ6EAycthC4kisG_Dc3-84">
          <mxGeometry y="132" width="220" height="44" as="geometry" />
        </mxCell>
        <mxCell id="rDQ6EAycthC4kisG_Dc3-101" style="shape=partialRectangle;html=1;whiteSpace=wrap;connectable=0;fillColor=#6a00ff;top=0;left=0;bottom=0;right=0;overflow=hidden;strokeColor=#3700CC;fontColor=#ffffff;" vertex="1" parent="rDQ6EAycthC4kisG_Dc3-100">
          <mxGeometry width="55" height="44" as="geometry" />
        </mxCell>
        <mxCell id="rDQ6EAycthC4kisG_Dc3-102" style="shape=partialRectangle;html=1;whiteSpace=wrap;connectable=0;top=0;left=0;bottom=0;right=0;overflow=hidden;strokeColor=#9673a6;fillColor=#FFCCFF;" vertex="1" parent="rDQ6EAycthC4kisG_Dc3-100">
          <mxGeometry x="55" width="55" height="44" as="geometry" />
        </mxCell>
        <mxCell id="rDQ6EAycthC4kisG_Dc3-103" style="shape=partialRectangle;html=1;whiteSpace=wrap;connectable=0;top=0;left=0;bottom=0;right=0;overflow=hidden;strokeColor=#9673a6;fillColor=#FFCCFF;" vertex="1" parent="rDQ6EAycthC4kisG_Dc3-100">
          <mxGeometry x="110" width="55" height="44" as="geometry" />
        </mxCell>
        <mxCell id="rDQ6EAycthC4kisG_Dc3-104" style="shape=partialRectangle;html=1;whiteSpace=wrap;connectable=0;top=0;left=0;bottom=0;right=0;overflow=hidden;strokeColor=#9673a6;fillColor=#FFCCFF;" vertex="1" parent="rDQ6EAycthC4kisG_Dc3-100">
          <mxGeometry x="165" width="55" height="44" as="geometry" />
        </mxCell>
        <mxCell id="rDQ6EAycthC4kisG_Dc3-105" style="shape=partialRectangle;html=1;whiteSpace=wrap;collapsible=0;dropTarget=0;pointerEvents=0;fillColor=none;top=0;left=0;bottom=0;right=0;points=[[0,0.5],[1,0.5]];portConstraint=eastwest;" vertex="1" parent="rDQ6EAycthC4kisG_Dc3-84">
          <mxGeometry y="176" width="220" height="44" as="geometry" />
        </mxCell>
        <mxCell id="rDQ6EAycthC4kisG_Dc3-106" style="shape=partialRectangle;html=1;whiteSpace=wrap;connectable=0;fillColor=#dae8fc;top=0;left=0;bottom=0;right=0;overflow=hidden;strokeColor=#6c8ebf;" vertex="1" parent="rDQ6EAycthC4kisG_Dc3-105">
          <mxGeometry width="55" height="44" as="geometry" />
        </mxCell>
        <mxCell id="rDQ6EAycthC4kisG_Dc3-107" style="shape=partialRectangle;html=1;whiteSpace=wrap;connectable=0;fillColor=#dae8fc;top=0;left=0;bottom=0;right=0;overflow=hidden;strokeColor=#6c8ebf;" vertex="1" parent="rDQ6EAycthC4kisG_Dc3-105">
          <mxGeometry x="55" width="55" height="44" as="geometry" />
        </mxCell>
        <mxCell id="rDQ6EAycthC4kisG_Dc3-108" style="shape=partialRectangle;html=1;whiteSpace=wrap;connectable=0;fillColor=#dae8fc;top=0;left=0;bottom=0;right=0;overflow=hidden;strokeColor=#6c8ebf;" vertex="1" parent="rDQ6EAycthC4kisG_Dc3-105">
          <mxGeometry x="110" width="55" height="44" as="geometry" />
        </mxCell>
        <mxCell id="rDQ6EAycthC4kisG_Dc3-109" style="shape=partialRectangle;html=1;whiteSpace=wrap;connectable=0;fillColor=#1ba1e2;top=0;left=0;bottom=0;right=0;overflow=hidden;strokeColor=#006EAF;fontColor=#ffffff;" vertex="1" parent="rDQ6EAycthC4kisG_Dc3-105">
          <mxGeometry x="165" width="55" height="44" as="geometry" />
        </mxCell>
        <mxCell id="rDQ6EAycthC4kisG_Dc3-118" value="" style="html=1;shadow=0;dashed=0;align=center;verticalAlign=middle;shape=mxgraph.arrows2.triadArrow;dy=10;dx=20;arrowHead=29.49;rotation=-225;" vertex="1" parent="1">
          <mxGeometry x="340" y="470" width="100" height="80" as="geometry" />
        </mxCell>
        <mxCell id="rDQ6EAycthC4kisG_Dc3-119" value="" style="endArrow=classic;html=1;" edge="1" parent="1">
          <mxGeometry width="50" height="50" relative="1" as="geometry">
            <mxPoint x="220" y="511" as="sourcePoint" />
            <mxPoint x="110" y="511" as="targetPoint" />
          </mxGeometry>
        </mxCell>
        <mxCell id="rDQ6EAycthC4kisG_Dc3-120" value="" style="endArrow=classic;html=1;" edge="1" parent="1">
          <mxGeometry width="50" height="50" relative="1" as="geometry">
            <mxPoint x="210" y="641" as="sourcePoint" />
            <mxPoint x="60" y="641" as="targetPoint" />
          </mxGeometry>
        </mxCell>
        <mxCell id="rDQ6EAycthC4kisG_Dc3-121" value="" style="endArrow=classic;html=1;" edge="1" parent="1">
          <mxGeometry width="50" height="50" relative="1" as="geometry">
            <mxPoint x="413" y="190" as="sourcePoint" />
            <mxPoint x="413" y="360" as="targetPoint" />
          </mxGeometry>
        </mxCell>
        <mxCell id="rDQ6EAycthC4kisG_Dc3-122" value="" style="shape=flexArrow;endArrow=classic;html=1;" edge="1" parent="1">
          <mxGeometry width="50" height="50" relative="1" as="geometry">
            <mxPoint x="290" y="250" as="sourcePoint" />
            <mxPoint x="380" y="250" as="targetPoint" />
          </mxGeometry>
        </mxCell>
        <mxCell id="rDQ6EAycthC4kisG_Dc3-123" value="" style="shape=flexArrow;endArrow=classic;html=1;" edge="1" parent="1">
          <mxGeometry width="50" height="50" relative="1" as="geometry">
            <mxPoint x="139.41" y="376" as="sourcePoint" />
            <mxPoint x="139.41" y="456" as="targetPoint" />
          </mxGeometry>
        </mxCell>
        <mxCell id="rDQ6EAycthC4kisG_Dc3-124" value="&lt;div style=&quot;font-size: 30px&quot;&gt;$$\oplus$$&lt;/div&gt;" style="text;html=1;strokeColor=none;fillColor=none;align=center;verticalAlign=middle;whiteSpace=wrap;rounded=0;fontSize=30;" vertex="1" parent="1">
          <mxGeometry x="330" y="460" width="40" height="20" as="geometry" />
        </mxCell>
      </root>
    </mxGraphModel>
  </diagram>
</mxfile>
